<svg width="185" height="26" viewBox="0 0 185 26" fill="none" xmlns="http://www.w3.org/2000/svg"><path d="M90.5893 5.77756C88.359 4.92403 86.1287 4.53009 83.4392 5.121C81.2745 5.58059 79.5689 6.43413 78.4538 8.6008C78.9786 8.99473 79.3722 9.38867 79.8313 9.78261C80.5529 10.4392 81.2745 11.0301 82.2584 11.818C83.0456 10.7018 84.4231 9.45433 85.9319 9.38867C87.6374 9.32302 89.2773 10.3079 89.5397 11.6867C89.6709 12.2776 89.7365 14.6412 89.7365 14.6412L88.8181 14.8382C88.7525 14.8382 88.5558 14.9038 88.2934 14.8382C88.2278 14.8382 88.2278 14.7725 88.1622 14.7725C88.0966 14.7725 88.0966 14.7725 88.031 14.7069C85.9975 13.9846 84.0952 13.5907 82.2584 13.5907C81.6025 13.5907 80.9465 13.6564 80.2905 13.722C78.257 14.0503 75.8955 15.1665 75.8955 18.8432C75.8955 20.222 76.2235 21.2725 76.8139 22.126C77.929 23.6362 79.5034 24.5553 81.6025 24.5553C83.8984 24.5553 85.9319 23.9644 87.8998 22.3887C87.9654 22.3887 88.359 21.9947 88.4902 21.9291L89.7365 20.9442V22.52V24.5553H94.9187V11.818C94.7875 8.99473 93.2132 6.76241 90.5893 5.77756ZM88.9493 17.5957C87.8342 19.5654 86.0631 20.6816 83.964 20.6816C83.8984 20.6816 83.7672 20.6816 83.7016 20.6816C83.308 20.6816 82.8488 20.6159 82.3896 20.5503C80.8153 20.1564 79.9625 18.9089 80.0281 17.2018L80.0937 16.4796H89.6053L88.9493 17.5957Z" 
fill="#ffffff"></path><path d="M144.51 5.77756C142.28 4.92403 140.05 4.53009 137.36 5.121C135.195 5.58059 133.49 6.43413 132.375 8.6008C132.899 8.99473 133.293 9.38867 133.752 9.78261C134.474 10.4392 135.195 11.0301 136.179 11.818C136.966 10.7018 138.344 9.45433 139.853 9.38867C141.558 9.32302 143.198 10.3079 143.461 11.6867C143.592 12.2776 143.657 14.6412 143.657 14.6412L142.739 14.8382C142.673 14.8382 142.477 14.9038 142.214 14.8382C142.149 14.8382 142.149 14.7725 142.083 14.7725C142.017 14.7725 142.017 14.7725 141.952 14.7069C139.918 13.9846 138.016 13.5907 136.179 13.5907C135.523 13.5907 134.867 13.6564 134.211 13.722C132.178 14.0503 129.816 15.1665 129.816 18.8432C129.816 20.222 130.144 21.2725 130.735 22.126C131.85 23.6362 133.424 24.5553 135.523 24.5553C137.819 24.5553 139.853 23.9644 141.821 22.3887C141.886 22.3887 142.28 21.9947 142.411 21.9291L143.657 20.9442V22.52V24.5553H148.84V11.818C148.708 8.99473 147.2 6.76241 144.51 5.77756ZM142.87 17.5957C141.755 19.5654 139.984 20.6816 137.885 20.6816C137.819 20.6816 137.688 20.6816 137.622 20.6816C137.229 20.6816 136.77 20.6159 136.311 20.5503C134.736 20.1564 133.883 18.9089 133.949 17.2018L134.015 16.4796H143.526L142.87 17.5957Z" 
fill="#ffffff"></path><path d="M179.801 5.77756C177.571 4.92403 175.341 4.53009 172.651 5.121C170.486 5.58059 168.781 6.43413 167.666 8.6008C168.19 8.99473 168.584 9.38867 169.043 9.78261C169.765 10.4392 170.486 11.0301 171.47 11.818C172.258 10.7018 173.635 9.45433 175.144 9.38867C176.849 9.32302 178.489 10.3079 178.752 11.6867C178.883 12.2776 178.948 14.6412 178.948 14.6412L178.03 14.8382C177.964 14.8382 177.768 14.9038 177.505 14.8382C177.44 14.8382 177.44 14.7725 177.374 14.7725C177.308 14.7725 177.309 14.7725 177.243 14.7069C175.209 13.9846 173.307 13.5907 171.47 13.5907C170.814 13.5907 170.158 13.6564 169.502 13.722C167.469 14.0503 165.107 15.1665 165.107 18.8432C165.107 20.222 165.435 21.2725 166.026 22.126C167.141 23.6362 168.715 24.5553 170.814 24.5553C173.11 24.5553 175.144 23.9644 177.112 22.3887C177.177 22.3887 177.571 21.9947 177.702 21.9291L178.948 20.9442V22.52V24.5553H184.131V11.818C183.999 8.99473 182.425 6.76241 179.801 5.77756ZM178.161 17.5957C177.046 19.5654 175.275 20.6816 173.176 20.6816C173.11 20.6816 172.979 20.6816 172.913 20.6816C172.52 20.6816 172.061 20.6159 171.602 20.5503C170.027 20.1564 169.174 18.9089 169.24 17.2018L169.306 16.4796H178.817L178.161 17.5957Z" 
fill="#ffffff"></path><path d="M162.878 6.43457C161.238 6.50023 159.991 7.22245 159.204 8.66689C159.139 8.79821 158.548 9.91437 158.548 9.91437L157.302 9.65174V9.06083V6.6972H152.316V24.4901H157.302V22.8487C157.302 21.2073 157.302 19.5002 157.302 17.8588V17.5305C157.302 16.9396 157.236 16.3487 157.302 15.6921C157.433 13.3942 159.204 11.6871 161.369 11.4245C162.09 11.3588 163.796 11.2932 163.993 11.2932V6.43457C163.665 6.43457 163.271 6.43457 162.878 6.43457Z" 
fill="#ffffff"></path><path d="M71.9595 20.3535C71.5659 20.3535 71.1067 20.3535 70.6475 20.2222C69.3356 20.0253 68.4828 19.3687 68.1548 18.3182C68.0236 17.8586 67.8924 17.399 67.8924 16.9394V8.99495H68.6796C70.3195 8.92929 72.0907 8.79798 73.7962 8.33838L72.7466 4.72727L67.958 5.4495V0H62.3167V5.31818H58.3809V8.99495H62.1855C62.1855 8.99495 62.1855 16.5455 62.1855 18.5152C62.1855 19.7626 62.5135 20.8788 63.1695 21.8636C63.9566 23.0455 65.0062 23.7677 66.6461 24.1616C68.4172 24.6212 70.1228 24.5556 72.0251 24.5556C72.1563 24.5556 72.3531 24.5556 72.4842 24.5556V20.3535C72.4186 20.3535 72.353 20.3535 72.2875 20.3535C72.2219 20.3535 72.0907 20.3535 71.9595 20.3535Z" 
fill="#ffffff"></path><path d="M115.32 14.4444C115.32 12.6716 116.501 11.2272 118.141 11.0959C120.109 10.8989 121.486 11.8838 121.88 13.7221C121.945 14.0504 121.945 14.3787 121.945 14.707C121.945 17.3989 121.945 20.0252 121.945 22.7171V24.4898H126.931V21.7322C126.931 18.6464 126.931 15.5605 126.931 12.4747C126.931 11.7525 126.865 11.2272 126.8 10.7676C126.406 8.53528 125.225 7.22215 123.192 6.63124C121.027 6.04033 117.419 6.49993 115.714 9.45447L114.926 10.9646C114.533 8.73225 113.221 7.15649 111.253 6.56558C109.088 5.97467 105.808 6.49993 104.169 9.38881L103.447 10.7019V6.6969H98.1992V24.4898H103.381C103.381 24.4898 103.381 17.3989 103.381 14.8383C103.381 14.51 103.381 14.1817 103.447 13.8535C103.644 12.5403 104.497 11.5555 105.743 11.2272C107.186 10.8333 108.629 11.2929 109.416 12.3434C110.007 13.1312 110.072 13.9848 110.072 14.6413C110.072 17.1363 110.072 24.4898 110.072 24.4898H115.32" 
fill="#ffffff"></path><path d="M2.3615 6.89418C1.31194 8.076 0.524777 9.32347 0 10.7023L16.5305 24.4245C17.3176 23.8992 18.1048 23.374 18.7608 22.6518L19.0888 22.3235C25.3861 15.7578 21.2535 8.66691 18.7608 6.30327C14.2346 1.90428 7.01889 2.0356 2.68948 6.5659L2.3615 6.89418Z" 
fill="#ffffff"></path><path d="M48.0176 14.5104C48.0176 20.8791 42.901 26.0003 36.5381 26.0003C30.1752 26.0003 25.0586 20.8791 25.0586 14.5104C25.0586 8.20738 30.1752 3.02051 36.5381 3.02051C42.901 3.08616 48.0176 8.20738 48.0176 14.5104Z" 
fill="#ffffff"></path></svg>